<svg width="509" height="103" viewBox="0 0 509 103" fill="none" xmlns="http://www.w3.org/2000/svg">
<path d="M23.3486 19.827C7.0583 60.5527 3.87884 87.3459 4.3254 95.6518C4.3254 102.725 11.113 93.9549 14.5068 88.6855C32.7262 52.0324 65.8605 29.2939 80.1502 22.5063C90.5995 19.827 83.1868 38.225 80.1502 46.0843C68.5755 78.0218 70.1474 92.4366 72.3802 95.6518C73.8687 97.7952 77.4709 94.848 80.1502 91.6328C91.1354 75.2889 120.876 39.1181 137.488 24.6497C141.775 21.8632 144.811 23.4887 145.794 24.6497C147.508 27.6506 147.937 30.0084 144.454 40.7257C135.88 61.8923 132.933 79.9331 132.933 82.2552C132.933 95.5446 137.448 97.7952 139.86 98.0632C144.361 98.0632 157.761 88.6855 161.334 84.9345" stroke="#351600" stroke-width="8.57383" stroke-linecap="round"/>
<path d="M213.847 37.243V32.9561C212.347 25.6684 203.098 26.2073 198.576 29.2046C175.534 44.4767 164.995 67.6082 164.013 75.021C159.94 91.3113 164.906 97.3486 168.568 98.3311C186.033 100.219 202.32 68.7736 213.949 47.398C214.557 46.2809 216.321 47.0177 216.03 48.2558C210.383 72.3335 213.621 86.9975 216.259 91.6332C220.76 96.7775 229.03 93.7767 232.603 91.6332C244.606 86.9176 265.29 45.013 274.132 30.0088C275.847 27.2224 276.633 27.9547 276.812 28.6692C277.883 35.9569 266.72 84.22 261.808 98.599C261.808 100.314 279.67 70.3773 287.797 58.6776C296.585 44.3164 305.481 30.0088 311.911 30.0088C317.806 30.0088 319.323 36.1713 318.877 39.3865C309.5 67.251 310.303 88.9539 311.911 93.5088C313.197 97.5813 317.091 98.2422 318.877 98.0636C325.95 98.0636 346.831 83.0594 356.387 75.5573C378.465 54.1227 384.52 36.7965 384.252 30.8126C381.144 25.5612 376.304 28.1333 373.803 29.7409C362.014 41.3156 356.745 55.641 355.584 61.3569C353.44 68.859 352.101 77.1644 355.584 86.2746C360.514 96.5632 376.036 99.6712 384.252 97.5277C392.469 95.3843 404.348 81.4514 408.098 75.5568C424.213 50.2279 438.107 36.9746 435.963 30.8122C432.481 24.3818 425.783 27.597 423.37 29.7404C411.581 41.3151 406.312 55.6406 405.151 61.3564C403.008 68.8585 404.1 79.6064 407.295 86.2741C412.224 96.5627 429.622 99.6712 437.839 97.5277C443.733 95.99 462.49 83.9056 468.651 78.772C486.335 64.0358 496.516 53.8543 504.286 42.8691" stroke="#351600" stroke-width="8.57383" stroke-linecap="round"/>
<path d="M424.748 11.8416C436.751 14.1227 443.652 8.52492 445.601 5.44091" stroke="#351600" stroke-width="8.57383" stroke-linecap="round"/>
</svg>
